<svg width="490" height="490" viewBox="0 0 490 490" fill="none" xmlns="http://www.w3.org/2000/svg">
<g clip-path="url(#clip0_1_2)">
<path d="M483.4 454.444L362.1 333.044C390.8 297.844 408.1 253.044 408.1 204.144C408.1 91.644 316.6 0.0440063 204 0.0440063C91.4 0.0440063 0 91.644 0 204.144C0 316.644 91.5 408.144 204.1 408.144C252.9 408.144 297.8 390.844 333 362.144L454.3 483.444C462.6 491.744 475.2 491.744 483.5 483.444C491.8 475.144 491.8 462.744 483.4 454.444ZM40.7 204.144C40.7 114.044 113.9 40.844 204 40.844C294.1 40.844 367.4 114.144 367.4 204.244C367.4 294.344 294.1 367.644 204 367.644C113.9 367.644 40.7 294.244 40.7 204.144Z" fill="#EB5757"/>
</g>
<defs>
<clipPath id="clip0_1_2">
<rect width="489.713" height="489.713" fill="white"/>
</clipPath>
</defs>
</svg>
